<svg width="29" height="24" viewBox="0 0 29 24" fill="none" xmlns="http://www.w3.org/2000/svg">
<path d="M0.808594 12.5664C0.808594 10.6211 1.26953 9.05469 2.19141 7.86719C3.12109 6.67969 4.37109 6.08594 5.94141 6.08594C7.33203 6.08594 8.41406 6.5625 9.1875 7.51562L9.32812 6.32031H12.3984V18.5781C12.3984 19.6875 12.1445 20.6523 11.6367 21.4727C11.1367 22.293 10.4297 22.918 9.51562 23.3477C8.60156 23.7773 7.53125 23.9922 6.30469 23.9922C5.375 23.9922 4.46875 23.8047 3.58594 23.4297C2.70312 23.0625 2.03516 22.5859 1.58203 22L3.08203 19.9375C3.92578 20.8828 4.94922 21.3555 6.15234 21.3555C7.05078 21.3555 7.75 21.1133 8.25 20.6289C8.75 20.1523 9 19.4727 9 18.5898V17.9102C8.21875 18.793 7.19141 19.2344 5.91797 19.2344C4.39453 19.2344 3.16016 18.6406 2.21484 17.4531C1.27734 16.2578 0.808594 14.6758 0.808594 12.707V12.5664ZM4.19531 12.8125C4.19531 13.9609 4.42578 14.8633 4.88672 15.5195C5.34766 16.168 5.98047 16.4922 6.78516 16.4922C7.81641 16.4922 8.55469 16.1055 9 15.332V10C8.54688 9.22656 7.81641 8.83984 6.80859 8.83984C5.99609 8.83984 5.35547 9.17188 4.88672 9.83594C4.42578 10.5 4.19531 11.4922 4.19531 12.8125ZM18.5859 19H15.1875V6.32031H18.5859V19ZM14.9883 3.03906C14.9883 2.53125 15.1562 2.11328 15.4922 1.78516C15.8359 1.45703 16.3008 1.29297 16.8867 1.29297C17.4648 1.29297 17.9258 1.45703 18.2695 1.78516C18.6133 2.11328 18.7852 2.53125 18.7852 3.03906C18.7852 3.55469 18.6094 3.97656 18.2578 4.30469C17.9141 4.63281 17.457 4.79688 16.8867 4.79688C16.3164 4.79688 15.8555 4.63281 15.5039 4.30469C15.1602 3.97656 14.9883 3.55469 14.9883 3.03906ZM22.3125 19V8.80469H20.4258V6.32031H22.3125V5.24219C22.3125 3.82031 22.7188 2.71875 23.5312 1.9375C24.3516 1.14844 25.4961 0.753906 26.9648 0.753906C27.4336 0.753906 28.0078 0.832031 28.6875 0.988281L28.6523 3.61328C28.3711 3.54297 28.0273 3.50781 27.6211 3.50781C26.3477 3.50781 25.7109 4.10547 25.7109 5.30078V6.32031H28.2305V8.80469H25.7109V19H22.3125Z" fill="#F2F2F2"/>
</svg>
